<svg xmlns="http://www.w3.org/2000/svg" viewBox="0 0 198.94 198.94"><style>.st5{fill:#fff}</style><g id="Layer_1"><path class="st5" d="M74.56 99.47V63.75c0-3.37 3.65-5.48 6.57-3.79l30.93 17.86 30.93 17.86c2.92 1.69 2.92 5.9 0 7.58l-30.93 17.86-30.93 17.86c-2.92 1.69-6.57-.42-6.57-3.79V99.47z"/><path class="st5" d="M99.47 198.94C44.62 198.94 0 154.32 0 99.47S44.62 0 99.47 0s99.47 44.62 99.47 99.47-44.62 99.47-99.47 99.47zM99.47 6C47.93 6 6 47.93 6 99.47s41.93 93.47 93.47 93.47 93.47-41.93 93.47-93.47S151.01 6 99.47 6z"/></g></svg>